<svg width="122" height="104" viewBox="0 0 122 104" fill="none" xmlns="http://www.w3.org/2000/svg">
<g filter="url(#filter0_d)">
<path d="M49.4443 30.0532C47.1394 28.8434 44.3595 28.8738 41.9611 30.1327L37.1642 32.6482L14.9112 20.9788C12.2437 19.5795 9.19001 19.0975 6.22061 19.6029C5.44842 19.734 5.01319 20.5647 5.34312 21.276C6.57862 23.9295 8.6331 26.1127 11.1977 27.5167L10.8303 28.2186C10.5729 28.71 10.7625 29.3161 11.2538 29.5735L14.1905 31.1132C14.6819 31.3706 15.2879 31.181 15.5453 30.6896L15.908 29.997L20.9038 32.6154L20.0755 34.1949L30.4766 39.6493L31.3049 38.0699L31.7987 38.3273C36.7243 40.9106 42.6256 40.8006 47.453 38.0394L45.7307 37.1362L49.4443 30.0532Z" fill="black"/>
<path d="M117.132 52.8513L109.855 72.2495C105.463 70.8596 100.261 71.0936 94.9259 74.4959C93.0071 75.7033 91.802 76.0075 89.3568 74.4959C83.0646 70.4852 76.4285 70.3706 69.9585 74.4959C67.7754 75.8718 66.5586 75.8461 64.4128 74.4959C58.1698 70.5156 51.5361 70.3378 45.0146 74.4959C42.8151 75.8554 41.6498 75.8601 39.4455 74.4959C33.1393 70.4759 26.5056 70.3799 20.0473 74.4959C17.8594 75.8741 16.6403 75.8414 14.5016 74.4959C13.6592 73.9811 12.6296 73.3025 11.2959 72.7409L5.02478 55.9869H68.812L80.5117 52.8513H117.132Z" fill="black"/>
<path d="M112.99 40.6368V48.1714H83.0155V40.6368H86.9934V34.4593H90.8543V2.96349C90.8543 1.67651 91.9073 0.623535 93.1943 0.623535C94.4813 0.623535 95.5343 1.67651 95.5343 2.96349V34.4593H100.472V12.6041C100.472 11.2937 101.525 10.2642 102.812 10.2642C104.098 10.2642 105.151 11.2937 105.151 12.6041V34.4593H109.036V40.6368H112.99Z" fill="black"/>
<path d="M117.127 81.7802C117.127 82.8285 116.201 83.6732 115.162 83.5258C112.754 83.1865 111.275 82.2412 109.939 81.3894C106.286 79.0612 103.013 79.0425 99.3298 81.3894C94.5211 84.4571 89.7734 84.4641 84.9577 81.3894C81.3051 79.0588 78.0385 79.0448 74.3648 81.3894C69.6381 84.4103 64.8856 84.5063 60.0045 81.3894C56.3541 79.0612 53.0852 79.0448 49.4115 81.3894C44.6076 84.4571 39.8621 84.4618 35.0488 81.3894C31.4055 79.0635 28.1366 79.0425 24.4582 81.3894C19.6543 84.4571 14.9112 84.4618 10.0979 81.3894C8.93025 80.643 7.95449 80.0206 6.35162 79.7796C5.47648 79.6485 4.80725 78.9301 4.80725 78.0456C4.80725 76.9973 5.73387 76.1526 6.77281 76.3C9.17595 76.6417 10.6525 77.5847 11.9862 78.4364C15.6483 80.774 18.9102 80.7717 22.5722 78.4364C27.3761 75.3687 32.1215 75.3641 36.9348 78.4364C40.5875 80.767 43.8517 80.7787 47.5255 78.4364C52.3294 75.3687 57.0748 75.3641 61.8881 78.4364C65.5385 80.7647 68.8027 80.7811 72.4788 78.4364C77.2172 75.4085 81.972 75.3266 86.8437 78.4364C90.5151 80.7787 93.784 80.7694 97.4461 78.4364C102.255 75.3687 107.005 75.3641 111.823 78.4364C112.993 79.1829 113.973 79.8076 115.581 80.0463C116.456 80.1774 117.127 80.8957 117.127 81.7802Z" fill="black"/>
<path d="M117.127 93.7724C117.127 94.8207 116.201 95.6654 115.162 95.518C109.693 94.7458 106.745 88.6572 99.3298 93.3816C94.5211 96.4493 89.7734 96.4563 84.9577 93.3816C81.3051 91.051 78.0385 91.037 74.3648 93.3816C69.6381 96.4025 64.8856 96.4984 60.0045 93.3816C56.3541 91.0533 53.0852 91.037 49.4115 93.3816C44.6076 96.4493 39.8621 96.454 35.0488 93.3816C31.4055 91.0557 28.1366 91.0346 24.4582 93.3816C19.6543 96.4493 14.9112 96.454 10.0979 93.3816C8.93025 92.6352 7.95449 92.0127 6.35162 91.7717C5.47648 91.6407 4.80725 90.9223 4.80725 90.0378C4.80725 88.9895 5.73387 88.1448 6.77281 88.2922C9.17595 88.6338 10.6525 89.5768 11.9862 90.4286C15.6483 92.7662 18.9102 92.7639 22.5722 90.4286C27.3761 87.3609 32.1215 87.3562 36.9348 90.4286C40.5875 92.7592 43.8517 92.7709 47.5255 90.4286C52.3294 87.3609 57.0748 87.3562 61.8881 90.4286C71.9429 96.8424 74.6409 82.6412 86.8414 90.4286C96.8892 96.8377 99.6129 82.6412 111.82 90.4286C112.99 91.175 113.971 91.7998 115.578 92.0385C116.456 92.1719 117.127 92.8879 117.127 93.7724Z" fill="black"/>
</g>
<defs>
<filter id="filter0_d" x="0.807251" y="0.623535" width="120.325" height="103.061" filterUnits="userSpaceOnUse" color-interpolation-filters="sRGB">
<feFlood flood-opacity="0" result="BackgroundImageFix"/>
<feColorMatrix in="SourceAlpha" type="matrix" values="0 0 0 0 0 0 0 0 0 0 0 0 0 0 0 0 0 0 127 0" result="hardAlpha"/>
<feOffset dy="4"/>
<feGaussianBlur stdDeviation="2"/>
<feComposite in2="hardAlpha" operator="out"/>
<feColorMatrix type="matrix" values="0 0 0 0 0 0 0 0 0 0 0 0 0 0 0 0 0 0 0.25 0"/>
<feBlend mode="normal" in2="BackgroundImageFix" result="effect1_dropShadow"/>
<feBlend mode="normal" in="SourceGraphic" in2="effect1_dropShadow" result="shape"/>
</filter>
</defs>
</svg>
