<svg width="119" height="55" viewBox="0 0 119 55" fill="none" xmlns="http://www.w3.org/2000/svg">
<g filter="url(#filter0_d)">
<path d="M62.8769 0.274228C62.2766 0.349991 61.7841 0.929234 61.8076 1.53315V2.79206C58.7797 2.99699 56.5006 3.83516 53.2536 2.75418V7.63732C56.5006 8.71855 58.7797 7.88031 61.8076 7.67514V11.2994H59.3636V18.624H74.0276V16.1062C74.0276 13.7322 71.5681 11.2994 69.025 11.2994H64.2516V1.53315C64.2792 0.827319 63.5784 0.18551 62.8769 0.274228ZM47.2582 13.7409C44.7151 13.7409 42.2556 16.1739 42.2556 18.5477V21.0657H39.8116V27.1695H49.5876V21.0657V13.7409H47.2582ZM19.0639 20.8704C19.0043 21.3897 19.3196 21.9299 19.8014 22.1339L25.3768 24.9186C24.838 25.5345 24.455 26.3082 24.2311 27.1695H32.4796V23.5073C30.9576 23.4938 29.4218 23.5072 28.0881 23.5451L20.9088 19.9593C19.8595 19.6699 19.2336 20.0436 19.0639 20.8705V20.8704ZM56.9196 21.0657V29.6112H23.9256V33.2735H74.0276H76.6243L78.0755 31.6329C78.4843 31.178 79.0697 30.8855 79.6793 30.8319C81.0473 30.8319 82.4582 30.8319 83.8418 30.8319C83.9339 29.6651 83.9464 28.3978 83.7654 27.3221L89.2262 24.5754C89.7281 24.3414 90.0243 23.7353 89.9004 23.196C89.7765 22.6568 89.2454 22.2404 88.6916 22.2484C86.6105 22.9866 84.5595 24.21 82.5434 25.2239C81.598 24.204 80.2817 23.5073 78.9156 23.5073H74.0276V21.0657H56.9196ZM102.821 24.8425L95.6035 28.4666C94.5816 28.3238 93.5389 28.3909 92.4721 28.3909V30.8324H99.0022C98.7665 30.4744 98.513 30.1401 98.2003 29.8405L103.89 27.0175C104.392 26.7834 104.688 26.1773 104.564 25.638C104.202 24.6532 103.504 24.5477 102.821 24.8424V24.8425ZM4.5972 27.67C4.16024 28.4748 4.51801 29.0551 5.13741 29.4585L10.8273 32.2816C10.5148 32.5812 10.2555 32.9153 10.0254 33.2735H16.5936V30.8319C15.5623 30.8001 14.4342 30.8197 13.4623 30.9077L6.24484 27.2836C5.50914 27.0132 4.98705 27.1034 4.5972 27.6701V27.67ZM79.9085 33.2735L77.77 35.715H4.37366C4.37366 40.5981 8.03965 46.702 10.4837 46.702H104.578L114.354 33.2735H79.9085Z" fill="black"/>
</g>
<defs>
<filter id="filter0_d" x="0.373657" y="0.265991" width="117.98" height="54.436" filterUnits="userSpaceOnUse" color-interpolation-filters="sRGB">
<feFlood flood-opacity="0" result="BackgroundImageFix"/>
<feColorMatrix in="SourceAlpha" type="matrix" values="0 0 0 0 0 0 0 0 0 0 0 0 0 0 0 0 0 0 127 0" result="hardAlpha"/>
<feOffset dy="4"/>
<feGaussianBlur stdDeviation="2"/>
<feComposite in2="hardAlpha" operator="out"/>
<feColorMatrix type="matrix" values="0 0 0 0 0 0 0 0 0 0 0 0 0 0 0 0 0 0 0.25 0"/>
<feBlend mode="normal" in2="BackgroundImageFix" result="effect1_dropShadow"/>
<feBlend mode="normal" in="SourceGraphic" in2="effect1_dropShadow" result="shape"/>
</filter>
</defs>
</svg>
