<svg width="97" height="68" viewBox="0 0 97 68" fill="none" xmlns="http://www.w3.org/2000/svg">
<g filter="url(#filter0_d)">
<path fill-rule="evenodd" clip-rule="evenodd" d="M91.5944 38.7761C91.4747 38.6837 91.3377 38.6126 91.1891 38.5686C91.0675 38.5325 90.9425 38.5159 90.8184 38.5178H5.92835C5.80412 38.5159 5.67891 38.5326 5.55708 38.5688C5.23909 38.6631 4.97437 38.8813 4.81888 39.1675C4.73785 39.3166 4.68649 39.4842 4.67271 39.6623C4.66084 39.8123 4.67606 39.9651 4.72001 40.1129C4.75615 40.2348 4.81049 40.3488 4.87989 40.4519L17.1505 59.2917C17.1718 59.3255 17.1947 59.3583 17.2191 59.3899C17.3397 59.5467 17.4919 59.6675 17.6607 59.7491C17.7736 59.804 17.896 59.8422 18.0248 59.8606C18.093 59.8705 18.162 59.8747 18.2312 59.8732H78.5156C78.5927 59.8749 78.6697 59.8694 78.7455 59.857C78.8439 59.8409 78.9385 59.8133 79.0277 59.7756C79.2482 59.6826 79.4443 59.525 79.5847 59.3094L91.867 40.4518C91.9356 40.3498 91.9895 40.237 92.0257 40.1166C92.122 39.7964 92.0832 39.4525 91.9262 39.1643C91.8458 39.0168 91.7345 38.8838 91.5944 38.7761ZM18.8754 57.39H77.8714L88.5458 41.001H8.20098L18.8754 57.39Z" fill="black"/>
<path d="M58.5543 31.0685H25.031" stroke="black" stroke-width="2.48321" stroke-miterlimit="10" stroke-linecap="round" stroke-linejoin="round"/>
<path d="M25.0311 31.0685L21.5546 39.7597" stroke="black" stroke-width="2.48321" stroke-miterlimit="10" stroke-linecap="round" stroke-linejoin="round"/>
<path d="M61.9067 39.7597L58.5543 31.0685" stroke="black" stroke-width="2.48321" stroke-miterlimit="10" stroke-linecap="round" stroke-linejoin="round"/>
<path d="M80.5308 35.4139H60.6652" stroke="black" stroke-width="2.48321" stroke-miterlimit="10" stroke-linecap="round" stroke-linejoin="round"/>
<path d="M28.6317 31.0685C28.6317 28.337 29.7492 25.7296 31.6116 23.9914C33.474 22.129 35.9572 21.0115 38.6887 21.0115H44.7726C50.3598 21.0115 54.8295 25.6055 54.8295 31.0685" fill="black"/>
<path d="M28.6317 31.0685C28.6317 28.337 29.7492 25.7296 31.6116 23.9914C33.474 22.129 35.9572 21.0115 38.6887 21.0115H44.7726C50.3598 21.0115 54.8295 25.6055 54.8295 31.0685" stroke="black" stroke-width="2.48321" stroke-miterlimit="10" stroke-linecap="round" stroke-linejoin="round"/>
<path d="M32.7289 22.998L14.1049 4.37392C13.4841 3.75312 13.4841 2.75984 14.1049 2.13904C14.4774 1.76655 14.8498 1.6424 15.2223 1.6424C15.5948 1.6424 15.9673 1.76655 16.3398 2.13904L35.5846 21.508" fill="black"/>
<path d="M32.7289 22.998L14.1049 4.37392C13.4841 3.75312 13.4841 2.75984 14.1049 2.13904C14.4774 1.76655 14.8498 1.6424 15.2223 1.6424C15.5948 1.6424 15.9673 1.76655 16.3398 2.13904L35.5846 21.508" stroke="black" stroke-width="2.48321" stroke-miterlimit="10" stroke-linecap="round" stroke-linejoin="round"/>
<path d="M41.7926 37.649C40.551 37.649 39.5577 36.6557 39.5577 35.4141C39.5577 34.1725 40.551 33.1792 41.7926 33.1792C43.0342 33.1792 44.0275 34.1725 44.0275 35.4141C44.0275 36.6557 43.0342 37.649 41.7926 37.649Z" stroke="black" stroke-width="2.48321" stroke-miterlimit="10" stroke-linecap="round" stroke-linejoin="round"/>
<path d="M52.7188 33.1792C53.9604 33.1792 54.9537 34.1725 54.9537 35.4141C54.9537 36.6557 53.9604 37.649 52.7188 37.649C51.4772 37.649 50.4839 36.6557 50.4839 35.4141C50.4839 34.1725 51.4772 33.1792 52.7188 33.1792Z" stroke="black" stroke-width="2.48321" stroke-miterlimit="10" stroke-linecap="round" stroke-linejoin="round"/>
<path d="M30.8666 37.649C29.625 37.649 28.6317 36.6557 28.6317 35.4141C28.6317 34.1725 29.625 33.1792 30.8666 33.1792C32.1082 33.1792 33.1015 34.1725 33.1015 35.4141C33.1015 36.6557 32.1082 37.649 30.8666 37.649Z" stroke="black" stroke-width="2.48321" stroke-miterlimit="10" stroke-linecap="round" stroke-linejoin="round"/>
<path d="M80.5308 39.7596V35.4139" stroke="black" stroke-width="2.48321" stroke-miterlimit="10" stroke-linecap="round" stroke-linejoin="round"/>
<mask id="mask0" style="mask-type:alpha" maskUnits="userSpaceOnUse" x="7" y="39" width="84" height="20">
<rect x="7.81421" y="39.3043" width="82.7735" height="19.0379" fill="#C4C4C4"/>
</mask>
<g mask="url(#mask0)">
<path d="M89.76 40.96H7.81421L18.4842 57.5147H79.09L89.76 40.96Z" fill="black"/>
</g>
</g>
<defs>
<filter id="filter0_d" x="0.668823" y="0.400818" width="95.4091" height="67.4727" filterUnits="userSpaceOnUse" color-interpolation-filters="sRGB">
<feFlood flood-opacity="0" result="BackgroundImageFix"/>
<feColorMatrix in="SourceAlpha" type="matrix" values="0 0 0 0 0 0 0 0 0 0 0 0 0 0 0 0 0 0 127 0" result="hardAlpha"/>
<feOffset dy="4"/>
<feGaussianBlur stdDeviation="2"/>
<feComposite in2="hardAlpha" operator="out"/>
<feColorMatrix type="matrix" values="0 0 0 0 0 0 0 0 0 0 0 0 0 0 0 0 0 0 0.25 0"/>
<feBlend mode="normal" in2="BackgroundImageFix" result="effect1_dropShadow"/>
<feBlend mode="normal" in="SourceGraphic" in2="effect1_dropShadow" result="shape"/>
</filter>
</defs>
</svg>
